<svg width="24" height="25" viewBox="0 0 24 25" fill="none" xmlns="http://www.w3.org/2000/svg">
<mask id="mask0_51_1277" style="mask-type:alpha" maskUnits="userSpaceOnUse" x="0" y="0" width="24" height="25">
<rect y="0.5" width="24" height="24" fill="#D9D9D9"/>
</mask>
<g mask="url(#mask0_51_1277)">
<path d="M5 21.5C4.45 21.5 3.97917 21.3042 3.5875 20.9125C3.19583 20.5208 3 20.05 3 19.5V5.5C3 4.95 3.19583 4.47917 3.5875 4.0875C3.97917 3.69583 4.45 3.5 5 3.5H12V5.5H5V19.5H12V21.5H5ZM16 17.5L14.625 16.05L17.175 13.5H9V11.5H17.175L14.625 8.95L16 7.5L21 12.5L16 17.5Z" fill="#1C1B1F"/>
</g>
</svg>
