<svg width="299" height="48" viewBox="0 0 299 48" fill="none" xmlns="http://www.w3.org/2000/svg">
<path d="M0.0625 2.78125C2.15625 3.03125 3.96875 3.21875 5.5 3.34375C7.03125 3.4375 8.29688 3.51562 9.29688 3.57812C10.4531 3.64063 11.4219 3.65625 12.2031 3.625C13.0156 3.59375 14.125 3.51562 15.5312 3.39062C16.7188 3.29688 18.2812 3.17188 20.2188 3.01562C22.1562 2.82812 24.5781 2.57812 27.4844 2.26562C27.5156 2.98438 27.5312 3.6875 27.5312 4.375C27.5625 5.03125 27.5938 5.60938 27.625 6.10938C27.6562 6.70312 27.6719 7.25 27.6719 7.75C27.6719 8.28125 27.6406 8.95312 27.5781 9.76562C27.5156 10.4531 27.4062 11.3281 27.25 12.3906C27.125 13.4219 26.9219 14.6562 26.6406 16.0938C26.2031 14.4062 25.7812 13.0469 25.375 12.0156C24.9688 10.9531 24.5938 10.1094 24.25 9.48438C23.875 8.76562 23.5 8.21875 23.125 7.84375C22.7188 7.5625 22.2344 7.32812 21.6719 7.14062C21.1719 6.98437 20.5312 6.85938 19.75 6.76562C19 6.67188 18.1094 6.6875 17.0781 6.8125C16.9219 10.9375 16.8125 14.2812 16.75 16.8438C16.6875 19.4062 16.6406 21.4062 16.6094 22.8438C16.5781 24.5625 16.5625 25.7969 16.5625 26.5469C16.5938 27.6094 16.7656 28.6562 17.0781 29.6875C17.3281 30.5625 17.7344 31.4688 18.2969 32.4062C18.8594 33.3438 19.6719 34.1719 20.7344 34.8906H15.0156C14.4844 34.8906 13.8281 34.9219 13.0469 34.9844C12.3906 35.0469 11.5469 35.1094 10.5156 35.1719C9.51562 35.2344 8.34375 35.3438 7 35.5C7.46875 34.6875 7.84375 33.9531 8.125 33.2969C8.40625 32.6406 8.625 32.0781 8.78125 31.6094C8.96875 31.0469 9.10938 30.5469 9.20312 30.1094C9.23438 29.4844 9.3125 28.2188 9.4375 26.3125C9.46875 25.5312 9.5 24.5625 9.53125 23.4062C9.59375 22.25 9.65625 20.875 9.71875 19.2812C9.8125 17.6875 9.89062 15.8594 9.95312 13.7969C10.0469 11.7031 10.1406 9.34375 10.2344 6.71875C9.67188 6.5625 9.14062 6.57812 8.64062 6.76562C8.14062 6.92188 7.70312 7.125 7.32812 7.375C6.89062 7.6875 6.46875 8.0625 6.0625 8.5C5.65625 9.03125 5.20312 9.71875 4.70312 10.5625C4.26562 11.2812 3.76562 12.2344 3.20312 13.4219C2.64062 14.5781 2 16.0156 1.28125 17.7344C1.125 15.9219 1.01562 14.4375 0.953125 13.2812C0.890625 12.0938 0.84375 11.1719 0.8125 10.5156C0.78125 9.73438 0.765625 9.15625 0.765625 8.78125C0.765625 8.4375 0.734375 7.98438 0.671875 7.42188C0.609375 6.95312 0.53125 6.34375 0.4375 5.59375C0.34375 4.8125 0.21875 3.875 0.0625 2.78125ZM36.1562 16C36.9688 16 37.8125 16.1562 38.6875 16.4688C39.5625 16.75 40.4062 17.125 41.2188 17.5938C42.0312 18.0312 42.7656 18.5156 43.4219 19.0469C44.1094 19.5469 44.6719 20.0312 45.1094 20.5C45.8906 21.3438 46.4219 22.4844 46.7031 23.9219C47.0156 25.3281 47.0781 26.7812 46.8906 28.2812C46.7031 29.75 46.2656 31.1406 45.5781 32.4531C44.8906 33.7656 43.9375 34.7344 42.7188 35.3594C41.8438 35.7969 40.9844 36.1406 40.1406 36.3906C39.2969 36.6406 38.4844 36.8281 37.7031 36.9531C36.9219 37.0781 36.1875 37.1406 35.5 37.1406C34.8125 37.1406 34.2188 37.125 33.7188 37.0938C32.7812 37.0312 31.7969 36.7031 30.7656 36.1094C29.7656 35.5156 28.8125 34.7812 27.9062 33.9062C27.0312 33.0312 26.2812 32.0781 25.6562 31.0469C25.0312 29.9844 24.6562 28.9844 24.5312 28.0469C24.3438 26.7656 24.3125 25.4219 24.4375 24.0156C24.5625 22.6094 25.0156 21.3125 25.7969 20.125C26.6094 18.9375 27.8281 17.9531 29.4531 17.1719C31.1094 16.3906 33.3438 16 36.1562 16ZM34.6094 34.1875C34.9531 34.25 35.4219 34.1719 36.0156 33.9531C36.6094 33.7031 37.1875 33.3125 37.75 32.7812C38.3438 32.25 38.8594 31.5781 39.2969 30.7656C39.7656 29.9219 40.0469 28.9062 40.1406 27.7188C40.2344 26.5625 40.2344 25.5 40.1406 24.5312C40.0781 23.5625 39.9375 22.7188 39.7188 22C39.5 21.25 39.25 20.6406 38.9688 20.1719C38.6875 19.7031 38.3906 19.375 38.0781 19.1875C37.5469 18.9062 36.9062 18.6875 36.1562 18.5312C35.4062 18.3438 34.7656 18.375 34.2344 18.625C33.9844 18.75 33.6719 19.0156 33.2969 19.4219C32.9219 19.8281 32.5469 20.3438 32.1719 20.9688C31.7969 21.5625 31.4531 22.25 31.1406 23.0312C30.8594 23.8125 30.6562 24.625 30.5312 25.4688C30.4062 26.3125 30.375 27.2188 30.4375 28.1875C30.5312 29.1562 30.7344 30.0781 31.0469 30.9531C31.3594 31.7969 31.7969 32.5312 32.3594 33.1562C32.9531 33.75 33.7031 34.0938 34.6094 34.1875ZM46.75 13.0469C47.375 13.1406 47.9375 13.2188 48.4375 13.2812C48.9062 13.3125 49.3281 13.3438 49.7031 13.375C50.1094 13.4062 50.5 13.4219 50.875 13.4219C51.2188 13.4219 51.6562 13.4062 52.1875 13.375C52.625 13.3438 53.1875 13.3125 53.875 13.2812C54.5938 13.2188 55.4375 13.1406 56.4062 13.0469C56.3438 13.1719 56.2188 13.5625 56.0312 14.2188C55.8438 14.8438 55.6562 15.625 55.4688 16.5625C55.2812 17.4688 55.1094 18.4844 54.9531 19.6094C54.8281 20.7031 54.7656 21.7969 54.7656 22.8906C54.7969 23.9531 54.9375 24.9688 55.1875 25.9375C55.4375 26.875 55.8438 27.6406 56.4062 28.2344C57.5938 29.4531 58.6406 30.1875 59.5469 30.4375C60.4844 30.6875 61.2969 30.6562 61.9844 30.3438C62.6719 30.0312 63.2344 29.5625 63.6719 28.9375C64.1094 28.3125 64.4219 27.7344 64.6094 27.2031C65.0781 25.7656 65.3594 24.25 65.4531 22.6562C65.5156 21.2812 65.4062 19.75 65.125 18.0625C64.8438 16.375 64.1719 14.6562 63.1094 12.9062C63.9219 12.9688 64.625 13.0156 65.2188 13.0469C65.8125 13.0781 66.3281 13.1094 66.7656 13.1406C67.2656 13.1719 67.7031 13.2031 68.0781 13.2344C68.4219 13.2656 68.8281 13.2656 69.2969 13.2344C69.7031 13.2344 70.1875 13.2188 70.75 13.1875C71.3438 13.125 72 13.0625 72.7188 13C72.8438 16.0625 72.9531 18.7969 73.0469 21.2031C73.1406 23.5781 73.2031 25.6875 73.2344 27.5312C73.2969 29.3438 73.3281 30.9219 73.3281 32.2656C73.3281 33.5781 73.3281 34.6875 73.3281 35.5938C73.2969 37.75 73.2031 39.1719 73.0469 39.8594C72.7969 40.8281 72.3438 41.7969 71.6875 42.7656C71.0625 43.7344 70.2656 44.5938 69.2969 45.3438C68.3281 46.125 67.2031 46.7188 65.9219 47.125C64.6719 47.5625 63.2969 47.7188 61.7969 47.5938C60.3281 47.4688 59.1562 47.2656 58.2812 46.9844C57.4375 46.7344 56.7656 46.4375 56.2656 46.0938C55.7969 45.75 55.4531 45.3906 55.2344 45.0156C55.0469 44.6406 54.9062 44.25 54.8125 43.8438C54.7188 43.4688 54.625 43.1094 54.5312 42.7656C54.4375 42.4219 54.25 42.125 53.9688 41.875C53.625 41.5938 53.2656 41.3125 52.8906 41.0312C52.5469 40.7812 52.1719 40.5312 51.7656 40.2812C51.3906 40.0312 51.0156 39.8281 50.6406 39.6719L60.625 39.1094C60.3438 39.4844 60.1406 39.8281 60.0156 40.1406C59.8906 40.4531 59.8125 40.7188 59.7812 40.9375C59.75 41.2188 59.7656 41.4531 59.8281 41.6406C59.9531 42.0156 60.1719 42.4219 60.4844 42.8594C60.8281 43.3281 61.2656 43.6875 61.7969 43.9375C62.3281 44.2188 62.9531 44.3125 63.6719 44.2188C64.4219 44.125 65.2656 43.7344 66.2031 43.0469C66.9844 42.4531 67.6406 41.5 68.1719 40.1875C68.6094 39.0625 68.9531 37.4844 69.2031 35.4531C69.4531 33.4219 69.4062 30.75 69.0625 27.4375C68.5 29.375 67.7344 30.8594 66.7656 31.8906C65.7969 32.9219 64.8281 33.6719 63.8594 34.1406C62.7344 34.7031 61.5625 35 60.3438 35.0312C58.7188 34.9688 57.3281 34.7656 56.1719 34.4219C55.0156 34.0469 54.0625 33.5469 53.3125 32.9219C52.5625 32.2969 51.9688 31.5625 51.5312 30.7188C51.125 29.8438 50.8281 28.875 50.6406 27.8125C50.4531 26.75 50.3594 25.6875 50.3594 24.625C50.3594 23.5312 50.3594 22.5156 50.3594 21.5781C50.3906 20.6406 50.4062 19.7969 50.4062 19.0469C50.4062 18.2656 50.3281 17.6406 50.1719 17.1719C49.9844 16.7031 49.7344 16.2344 49.4219 15.7656C49.1719 15.3594 48.8281 14.9219 48.3906 14.4531C47.9219 13.9531 47.375 13.4844 46.75 13.0469ZM83.3594 5.26562C84.9219 5.35938 86.2344 5.4375 87.2969 5.5C88.3906 5.53125 89.2969 5.5625 90.0156 5.59375C90.8281 5.625 91.5156 5.625 92.0781 5.59375C92.6406 5.5625 93.4062 5.48437 94.375 5.35938C95.1875 5.26562 96.2656 5.125 97.6094 4.9375C98.9844 4.71875 100.688 4.4375 102.719 4.09375C102 4.8125 101.438 5.46875 101.031 6.0625C100.656 6.625 100.359 7.10938 100.141 7.51562C99.8906 8.01562 99.7188 8.4375 99.625 8.78125C99.5625 9.09375 99.625 9.875 99.8125 11.125C100 12.375 100.266 13.8594 100.609 15.5781C100.953 17.2656 101.328 19.0781 101.734 21.0156C102.141 22.9219 102.547 24.7188 102.953 26.4062C103.359 28.0625 103.719 29.4844 104.031 30.6719C104.375 31.8281 104.625 32.5156 104.781 32.7344C105.25 33.3906 105.547 33.8281 105.672 34.0469C105.797 34.2344 106.016 34.4062 106.328 34.5625C106.453 34.625 106.656 34.7188 106.938 34.8438C107.188 34.9688 107.516 35.125 107.922 35.3125C108.359 35.5 108.906 35.7188 109.562 35.9688C108.344 36.0312 107.297 36.0781 106.422 36.1094C105.547 36.1094 104.828 36.125 104.266 36.1562C103.609 36.1875 103.047 36.2188 102.578 36.25C102.109 36.25 101.547 36.2812 100.891 36.3438C100.328 36.4062 99.5938 36.4688 98.6875 36.5312C97.8125 36.5938 96.7812 36.6562 95.5938 36.7188C96.2188 36.2812 96.7188 35.8906 97.0938 35.5469C97.5 35.1719 97.8125 34.8594 98.0312 34.6094C98.2812 34.2969 98.4531 34.0156 98.5469 33.7656C98.6094 33.4844 98.6562 33.0625 98.6875 32.5C98.7188 32 98.7188 31.3438 98.6875 30.5312C98.6562 29.6875 98.5781 28.5938 98.4531 27.25L86.125 28.5156C85.8125 29.0469 85.5781 29.5156 85.4219 29.9219C85.2656 30.2969 85.1562 30.625 85.0938 30.9062C85 31.25 84.9688 31.5312 85 31.75C85.0625 32 85.1719 32.2969 85.3281 32.6406C85.4844 32.9531 85.7031 33.3281 85.9844 33.7656C86.2969 34.1719 86.75 34.6562 87.3438 35.2188C86.5625 35.1875 85.7656 35.1719 84.9531 35.1719C84.1406 35.1719 83.3906 35.1875 82.7031 35.2188C81.8906 35.25 81.0938 35.2812 80.3125 35.3125C79.5312 35.3438 78.6406 35.3906 77.6406 35.4531C76.7969 35.5156 75.8125 35.5938 74.6875 35.6875C73.5312 35.75 72.2969 35.8438 70.9844 35.9688C71.7969 35.5938 72.4844 35.2188 73.0469 34.8438C73.6094 34.4375 74.0781 34.0625 74.4531 33.7188C74.8906 33.3438 75.2656 32.9844 75.5781 32.6406C75.7969 32.3281 76.2344 31.6094 76.8906 30.4844C77.5469 29.3281 78.2812 27.9688 79.0938 26.4062C79.9375 24.8438 80.8125 23.1719 81.7188 21.3906C82.6562 19.6094 83.5 17.9375 84.25 16.375C85 14.7812 85.6094 13.4062 86.0781 12.25C86.5469 11.0938 86.7812 10.3438 86.7812 10C86.7188 9.59375 86.5625 9.14062 86.3125 8.64062C86.0938 8.20312 85.75 7.70312 85.2812 7.14062C84.8438 6.57812 84.2031 5.95312 83.3594 5.26562ZM97.8906 23.7812C97.7031 22.6875 97.5312 21.75 97.375 20.9688C97.2188 20.1562 97.0938 19.4844 97 18.9531C96.875 18.3281 96.7812 17.7812 96.7188 17.3125C96.625 16.875 96.5156 16.3125 96.3906 15.625C96.2656 15.0312 96.1094 14.2969 95.9219 13.4219C95.7656 12.5156 95.5625 11.4375 95.3125 10.1875C93.5312 13.75 92.1406 16.5156 91.1406 18.4844C90.1719 20.4219 89.4688 21.8438 89.0312 22.75C88.5 23.8125 88.2031 24.4375 88.1406 24.625L97.8906 23.7812ZM129.906 1.09375C130.5 1.125 131.141 1.14062 131.828 1.14062C132.422 1.14062 133.094 1.15625 133.844 1.1875C134.625 1.1875 135.438 1.15625 136.281 1.09375C135.531 1.4375 134.875 1.9375 134.312 2.59375C133.75 3.25 133.297 3.90625 132.953 4.5625C132.516 5.34375 132.156 6.15625 131.875 7C131.719 7.5 131.594 8.39062 131.5 9.67188C131.406 10.9219 131.328 12.3906 131.266 14.0781C131.234 15.7656 131.219 17.5469 131.219 19.4219C131.219 21.2969 131.234 23.0938 131.266 24.8125C131.297 26.5 131.344 28 131.406 29.3125C131.469 30.625 131.547 31.5469 131.641 32.0781C131.766 32.7031 131.922 33.2969 132.109 33.8594C132.266 34.3594 132.469 34.875 132.719 35.4062C132.969 35.9062 133.281 36.3125 133.656 36.625L128.875 38.7812C128.625 38.4375 128.422 38.0781 128.266 37.7031C128.109 37.3594 127.984 37.0469 127.891 36.7656C127.766 36.4219 127.688 36.1094 127.656 35.8281C127.594 35.4531 127.531 35.0469 127.469 34.6094C127.406 34.1406 127.328 33.7031 127.234 33.2969C127.172 32.8594 127.125 32.5 127.094 32.2188C127.062 31.9375 127.062 31.7656 127.094 31.7031C127.125 31.6406 126.938 31.9219 126.531 32.5469C126.125 33.1406 125.516 33.8438 124.703 34.6562C123.922 35.4375 122.953 36.2031 121.797 36.9531C120.641 37.6719 119.344 38.125 117.906 38.3125C116.438 38.5 115.078 38.2188 113.828 37.4688C112.609 36.7188 111.562 35.6719 110.688 34.3281C109.812 32.9531 109.141 31.375 108.672 29.5938C108.234 27.7812 108.062 25.9375 108.156 24.0625C108.219 22.8125 108.5 21.7031 109 20.7344C109.5 19.7344 110.125 18.875 110.875 18.1562C111.656 17.4062 112.5 16.7812 113.406 16.2812C114.344 15.75 115.25 15.3125 116.125 14.9688C117.031 14.625 117.875 14.375 118.656 14.2188C119.438 14.0625 120.062 13.9531 120.531 13.8906C121.094 13.8594 121.734 13.9531 122.453 14.1719C123.078 14.3594 123.797 14.6719 124.609 15.1094C125.453 15.5469 126.391 16.2031 127.422 17.0781C127.234 13.9531 127.062 11.4531 126.906 9.57812C126.75 7.67188 126.594 6.21875 126.438 5.21875C126.281 4.03125 126.141 3.21875 126.016 2.78125C125.859 2.46875 125.656 2.15625 125.406 1.84375C125.188 1.59375 124.906 1.34375 124.562 1.09375C124.25 0.8125 123.875 0.59375 123.438 0.4375C124.25 0.59375 125.031 0.703125 125.781 0.765625C126.531 0.828125 127.219 0.890625 127.844 0.953125C128.562 1.01563 129.25 1.0625 129.906 1.09375ZM118.141 18.5781C117.547 18.7969 117.062 19.1719 116.688 19.7031C116.344 20.2344 116.062 20.875 115.844 21.625C115.625 22.3438 115.469 23.125 115.375 23.9688C115.312 24.7812 115.266 25.5781 115.234 26.3594C115.234 27.1094 115.234 27.7969 115.234 28.4219C115.234 29.0469 115.234 29.5156 115.234 29.8281C115.234 30.0156 115.266 30.3594 115.328 30.8594C115.422 31.3281 115.609 31.8281 115.891 32.3594C116.172 32.8594 116.562 33.3125 117.062 33.7188C117.594 34.125 118.297 34.3281 119.172 34.3281C119.891 34.2656 120.656 34.0156 121.469 33.5781C122.188 33.2031 123 32.6094 123.906 31.7969C124.844 30.9531 125.844 29.75 126.906 28.1875C126.844 27.1875 126.797 26.3594 126.766 25.7031C126.766 25.0469 126.75 24.5156 126.719 24.1094C126.688 23.6406 126.672 23.2656 126.672 22.9844V22.2812C126.672 22.0938 126.672 21.8906 126.672 21.6719C126.672 21.4531 126.688 21.25 126.719 21.0625C125.844 20.4375 125.062 19.9062 124.375 19.4688C123.719 19 123.062 18.6562 122.406 18.4375C121.781 18.1875 121.125 18.0781 120.438 18.1094C119.781 18.1094 119.016 18.2656 118.141 18.5781ZM132.203 11.1719C132.734 11.2656 133.281 11.3438 133.844 11.4062C134.375 11.4375 134.859 11.4688 135.297 11.5C135.797 11.5312 136.281 11.5469 136.75 11.5469C137.219 11.5469 137.75 11.5312 138.344 11.5C138.844 11.4688 139.438 11.4219 140.125 11.3594C140.844 11.2969 141.625 11.2031 142.469 11.0781C141.969 11.3594 141.578 11.6562 141.297 11.9688C141.016 12.2812 140.797 12.5625 140.641 12.8125C140.453 13.125 140.328 13.4062 140.266 13.6562C140.203 13.9062 140.219 14.4219 140.312 15.2031C140.406 15.9844 140.531 16.8906 140.688 17.9219C140.875 18.9531 141.078 20.0312 141.297 21.1562C141.516 22.2812 141.734 23.3125 141.953 24.25C142.203 25.1875 142.422 25.9688 142.609 26.5938C142.828 27.2188 143 27.5156 143.125 27.4844C143.25 27.4844 143.438 27.1719 143.688 26.5469C143.969 25.9219 144.281 25.1562 144.625 24.25C144.969 23.3125 145.328 22.2969 145.703 21.2031C146.078 20.0781 146.406 19.0312 146.688 18.0625C146.969 17.0938 147.188 16.2812 147.344 15.625C147.531 14.9375 147.609 14.5312 147.578 14.4062C147.484 14.2812 147.375 14.1094 147.25 13.8906C147.031 13.5469 146.547 12.9531 145.797 12.1094C146.703 12.1719 147.484 12.2344 148.141 12.2969C148.797 12.3281 149.328 12.375 149.734 12.4375C150.203 12.5 150.578 12.5469 150.859 12.5781C151.141 12.6094 151.547 12.6094 152.078 12.5781C152.516 12.5781 153.094 12.5625 153.812 12.5312C154.562 12.4688 155.484 12.375 156.578 12.25C155.766 12.7188 155.094 13.1406 154.562 13.5156C154.062 13.8594 153.672 14.1562 153.391 14.4062C153.047 14.7188 152.797 14.9844 152.641 15.2031C152.422 15.6094 152.031 16.5781 151.469 18.1094C151.219 18.7656 150.906 19.5781 150.531 20.5469C150.188 21.5156 149.766 22.6875 149.266 24.0625C148.797 25.4062 148.234 26.9844 147.578 28.7969C146.922 30.6094 146.188 32.6875 145.375 35.0312L140.828 35.5C140.234 33.5312 139.75 31.8906 139.375 30.5781C139.031 29.2344 138.75 28.1562 138.531 27.3438C138.281 26.4062 138.094 25.6719 137.969 25.1406C137.812 24.5469 137.625 23.6875 137.406 22.5625C137.188 21.4062 136.969 20.2344 136.75 19.0469C136.531 17.8594 136.312 16.7969 136.094 15.8594C135.875 14.8906 135.703 14.2969 135.578 14.0781C135.453 13.9219 135.234 13.7031 134.922 13.4219C134.672 13.1719 134.328 12.875 133.891 12.5312C133.453 12.1562 132.891 11.7031 132.203 11.1719ZM166.375 29.4531C167.25 29.4531 168.062 29.3594 168.812 29.1719C169.438 29.0156 170.031 28.7656 170.594 28.4219C171.188 28.0469 171.578 27.5 171.766 26.7812C172.391 26.9062 172.922 27.0156 173.359 27.1094C173.797 27.1719 174.172 27.2344 174.484 27.2969C174.828 27.3906 175.125 27.4531 175.375 27.4844C175.625 27.5469 175.922 27.6094 176.266 27.6719C176.578 27.7344 176.953 27.8125 177.391 27.9062C177.859 27.9688 178.406 28.0625 179.031 28.1875C178.562 28.125 178.078 28.1719 177.578 28.3281C177.109 28.4844 176.656 28.6562 176.219 28.8438C175.719 29.0625 175.25 29.3281 174.812 29.6406C174.531 29.8281 174.203 30.1094 173.828 30.4844C173.484 30.8594 172.984 31.2188 172.328 31.5625C171.672 31.9062 170.797 32.2031 169.703 32.4531C168.641 32.6719 167.266 32.75 165.578 32.6875C163.547 32.625 161.844 32.2656 160.469 31.6094C159.094 30.9219 157.984 30.0938 157.141 29.125C156.297 28.125 155.688 27.0469 155.312 25.8906C154.938 24.7344 154.734 23.6562 154.703 22.6562C154.672 21.6562 154.969 20.6094 155.594 19.5156C156.219 18.4219 157.094 17.4219 158.219 16.5156C159.375 15.6094 160.766 14.875 162.391 14.3125C164.016 13.7188 165.797 13.4219 167.734 13.4219C168.859 13.4219 169.891 13.5625 170.828 13.8438C171.797 14.0938 172.672 14.4375 173.453 14.875C174.266 15.3125 174.969 15.8125 175.562 16.375C176.156 16.9062 176.656 17.4531 177.062 18.0156C177.469 18.6094 177.812 19.2344 178.094 19.8906C178.344 20.4531 178.547 21.0938 178.703 21.8125C178.859 22.5312 178.906 23.2656 178.844 24.0156C176.469 24.0781 174.547 24.125 173.078 24.1562C171.641 24.1875 170.516 24.2031 169.703 24.2031H167.594H166C165.438 24.2031 164.703 24.2188 163.797 24.25C162.891 24.2812 161.781 24.3281 160.469 24.3906C160.625 25.6406 161.016 26.6094 161.641 27.2969C162.297 27.9531 162.984 28.4531 163.703 28.7969C164.516 29.1719 165.406 29.3906 166.375 29.4531ZM162.156 21.0156C163.156 21.0781 163.984 21.125 164.641 21.1562C165.328 21.1875 165.891 21.2188 166.328 21.25C166.797 21.2812 167.172 21.2969 167.453 21.2969H168.625C169.406 21.2969 170.859 21.25 172.984 21.1562C172.891 19.7812 172.594 18.7344 172.094 18.0156C171.625 17.2969 171.125 16.7656 170.594 16.4219C169.969 16.0469 169.281 15.8281 168.531 15.7656C166.5 15.7969 164.984 16.2188 163.984 17.0312C163.016 17.8438 162.406 19.1719 162.156 21.0156ZM182.172 31.8438C182.391 30.8125 182.547 29.9062 182.641 29.125C182.766 28.3125 182.859 27.6406 182.922 27.1094C182.984 26.4844 183.016 25.9531 183.016 25.5156C182.984 24.9844 182.953 24.3594 182.922 23.6406C182.922 22.8906 182.891 22.1562 182.828 21.4375C182.797 20.6875 182.75 20.0312 182.688 19.4688C182.625 18.875 182.547 18.4531 182.453 18.2031C182.328 17.9531 182.156 17.6875 181.938 17.4062C181.5 16.875 180.859 16.3594 180.016 15.8594C180.734 15.7031 181.344 15.5781 181.844 15.4844C182.375 15.3594 182.812 15.25 183.156 15.1562C183.531 15.0312 183.859 14.9219 184.141 14.8281C184.391 14.7344 184.688 14.6406 185.031 14.5469C185.312 14.4844 185.656 14.4062 186.062 14.3125C186.469 14.2188 186.938 14.1094 187.469 13.9844L187.328 18.25C188.328 17.0625 189.344 16.1719 190.375 15.5781C191.406 14.9844 192.375 14.5625 193.281 14.3125C194.312 14 195.328 13.8438 196.328 13.8438C197.578 13.9062 198.734 14.1094 199.797 14.4531C200.891 14.7969 201.828 15.2031 202.609 15.6719C203.422 16.1094 204.078 16.5781 204.578 17.0781C205.078 17.5781 205.375 18.0156 205.469 18.3906C205.844 19.6094 205.938 20.7344 205.75 21.7656C205.562 22.7656 205.312 23.75 205 24.7188C204.719 25.6562 204.469 26.5938 204.25 27.5312C204.062 28.4688 204.141 29.4844 204.484 30.5781C204.609 30.8594 204.734 31.1406 204.859 31.4219C204.984 31.6719 205.141 31.9219 205.328 32.1719C205.516 32.4219 205.734 32.625 205.984 32.7812C205.641 32.75 205.297 32.7344 204.953 32.7344C204.609 32.7031 204.297 32.6719 204.016 32.6406C203.672 32.6094 203.359 32.5781 203.078 32.5469C202.766 32.5156 202.344 32.5 201.812 32.5C200.906 32.5 199.5 32.5469 197.594 32.6406C197.875 31.9844 198.094 31.4375 198.25 31C198.438 30.5312 198.594 30.1562 198.719 29.875C198.844 29.5312 198.938 29.2656 199 29.0781C199.375 28.1719 199.594 27.1406 199.656 25.9844C199.75 24.8281 199.672 23.6562 199.422 22.4688C199.328 22.0625 199.172 21.5781 198.953 21.0156C198.734 20.4531 198.438 19.9062 198.062 19.375C197.719 18.8438 197.297 18.3906 196.797 18.0156C196.328 17.6406 195.781 17.4219 195.156 17.3594C194.531 17.2969 193.828 17.4531 193.047 17.8281C192.297 18.2031 191.484 18.8906 190.609 19.8906C189.953 20.7344 189.438 21.7656 189.062 22.9844C188.719 24.0156 188.484 25.3125 188.359 26.875C188.234 28.4062 188.422 30.2031 188.922 32.2656C188.484 32.2031 188.078 32.1719 187.703 32.1719C187.328 32.1406 187.016 32.1094 186.766 32.0781C186.453 32.0469 186.172 32.0156 185.922 31.9844C185.641 31.9844 185.328 31.9688 184.984 31.9375C184.672 31.9375 184.281 31.9375 183.812 31.9375C183.344 31.9062 182.797 31.875 182.172 31.8438ZM208.281 7.46875C209.219 7.5625 210 7.64062 210.625 7.70312C211.281 7.76562 211.812 7.8125 212.219 7.84375C212.688 7.875 213.062 7.89062 213.344 7.89062C213.625 7.92188 214 7.92188 214.469 7.89062C214.875 7.85938 215.406 7.82812 216.062 7.79688C216.719 7.73438 217.547 7.64062 218.547 7.51562C218.328 7.82812 218.156 8.10938 218.031 8.35938C217.906 8.57812 217.797 8.78125 217.703 8.96875L217.422 9.53125C217.359 9.71875 217.297 9.90625 217.234 10.0938C217.172 10.25 217.109 10.4375 217.047 10.6562C217.016 10.875 216.984 11.1094 216.953 11.3594H224.172L223.516 15.1562L216.906 14.7812C216.75 16.375 216.641 17.6094 216.578 18.4844C216.516 19.3594 216.453 20 216.391 20.4062L216.297 21.25C216.203 22.4375 216.109 23.7344 216.016 25.1406C215.922 26.5156 215.891 27.7969 215.922 28.9844C215.953 30.1719 216.062 31.1719 216.25 31.9844C216.438 32.7656 216.766 33.1562 217.234 33.1562C217.703 33.1562 218.141 33.0312 218.547 32.7812C218.953 32.5312 219.297 32.2344 219.578 31.8906C219.891 31.5469 220.125 31.2031 220.281 30.8594C220.438 30.4844 220.516 30.2031 220.516 30.0156C220.516 29.8281 220.469 29.6094 220.375 29.3594C220.219 28.8906 219.938 28.2969 219.531 27.5781C220.438 27.7969 221.234 28.0156 221.922 28.2344C222.266 28.3594 222.578 28.4844 222.859 28.6094C223.172 28.7344 223.531 28.875 223.938 29.0312C224.281 29.1875 224.719 29.375 225.25 29.5938C225.781 29.8125 226.406 30.0781 227.125 30.3906C226.438 30.5156 225.938 30.7188 225.625 31C225.438 31.125 225.297 31.2656 225.203 31.4219C224.984 31.7656 224.734 32.2344 224.453 32.8281C224.172 33.3906 223.75 33.9531 223.188 34.5156C222.625 35.0781 221.859 35.5781 220.891 36.0156C219.953 36.4531 218.688 36.7031 217.094 36.7656C215.438 36.8281 214.172 36.5469 213.297 35.9219C212.453 35.2969 211.828 34.5781 211.422 33.7656C211.047 32.9219 210.828 32.0938 210.766 31.2812C210.703 30.4688 210.656 29.9219 210.625 29.6406C210.594 29.3594 210.594 28.6562 210.625 27.5312C210.656 26.4062 210.703 25.1719 210.766 23.8281C210.828 22.4531 210.891 21.1406 210.953 19.8906C211.016 18.6094 211.047 17.6719 211.047 17.0781C211.047 16.7656 211.062 16.4375 211.094 16.0938C211.094 15.8125 211.094 15.5156 211.094 15.2031C211.125 14.8594 211.141 14.5312 211.141 14.2188L204.344 14.1719L204.062 11.5L210.906 11.6875C210.844 11.3438 210.766 11.0312 210.672 10.75C210.609 10.4375 210.547 10.1875 210.484 10C210.391 9.78125 210.297 9.59375 210.203 9.4375C210.078 9.28125 209.938 9.10938 209.781 8.92188C209.625 8.76562 209.422 8.5625 209.172 8.3125C208.922 8.0625 208.625 7.78125 208.281 7.46875ZM225.438 15.4375C226.25 15.5938 226.953 15.7188 227.547 15.8125C228.172 15.875 228.703 15.9375 229.141 16C229.641 16.0625 230.078 16.1094 230.453 16.1406C230.828 16.1719 231.266 16.2031 231.766 16.2344C232.609 16.2656 233.797 16.2656 235.328 16.2344C234.422 16.1719 233.703 16.4062 233.172 16.9375C232.672 17.4375 232.297 18.0156 232.047 18.6719C231.734 19.4531 231.562 20.3594 231.531 21.3906C231.469 22.7656 231.5 24.0156 231.625 25.1406C231.781 26.2344 232.047 27.1719 232.422 27.9531C232.828 28.7031 233.359 29.2656 234.016 29.6406C234.672 29.9844 235.516 30.0781 236.547 29.9219C237.578 29.7656 238.359 29.4062 238.891 28.8438C239.453 28.25 239.859 27.5312 240.109 26.6875C240.359 25.8125 240.5 24.8281 240.531 23.7344C240.594 22.6406 240.641 21.5 240.672 20.3125C240.672 19.125 240.656 18.2812 240.625 17.7812C240.625 17.25 240.609 16.9062 240.578 16.75C240.547 16.5938 240.5 16.5312 240.438 16.5625C240.375 16.5625 240.297 16.4844 240.203 16.3281C240.141 16.2031 240.047 16.0781 239.922 15.9531C239.828 15.8281 239.703 15.6875 239.547 15.5312C239.391 15.3438 239.219 15.1562 239.031 14.9688C239.844 15 240.562 15.0312 241.188 15.0625C241.844 15.0625 242.391 15.0781 242.828 15.1094C243.328 15.1406 243.766 15.1719 244.141 15.2031C244.484 15.2344 244.938 15.2812 245.5 15.3438C245.969 15.4062 246.578 15.4688 247.328 15.5312C248.078 15.5938 248.969 15.6875 250 15.8125C249.281 15.9688 248.703 16.2031 248.266 16.5156C247.828 16.8281 247.484 17.1406 247.234 17.4531C246.953 17.7969 246.75 18.1719 246.625 18.5781C246.531 19.1094 246.531 19.9219 246.625 21.0156C246.688 21.9844 246.844 23.3125 247.094 25C247.344 26.6875 247.734 28.9062 248.266 31.6562L244.562 33.8594L243.812 27.625C242.906 29.1562 241.938 30.3438 240.906 31.1875C239.906 32 238.969 32.5938 238.094 32.9688C237.062 33.4062 236.062 33.6562 235.094 33.7188C233.812 33.7188 232.703 33.6406 231.766 33.4844C230.859 33.2969 230.078 33.0625 229.422 32.7812C228.766 32.5 228.234 32.1875 227.828 31.8438C227.453 31.4688 227.172 31.0938 226.984 30.7188C226.547 29.9375 226.312 28.9375 226.281 27.7188C226.25 26.4688 226.297 25.2344 226.422 24.0156C226.547 22.7656 226.688 21.625 226.844 20.5938C227 19.5625 227.047 18.8594 226.984 18.4844C226.922 18.2031 226.828 17.8906 226.703 17.5469C226.578 17.2656 226.422 16.9531 226.234 16.6094C226.047 16.2344 225.781 15.8438 225.438 15.4375ZM250.234 14.5469C250.828 14.5781 251.359 14.5938 251.828 14.5938C252.328 14.5625 252.75 14.5312 253.094 14.5C253.5 14.4688 253.859 14.4375 254.172 14.4062C254.641 14.3438 255.125 14.2656 255.625 14.1719C256.062 14.1094 256.516 14.0312 256.984 13.9375C257.484 13.8125 257.969 13.6719 258.438 13.5156C258.25 13.9844 258.094 14.3906 257.969 14.7344C257.844 15.0781 257.75 15.375 257.688 15.625C257.594 15.9062 257.547 16.1406 257.547 16.3281C257.516 16.5469 257.5 16.8125 257.5 17.125C257.469 17.6562 257.469 18.5156 257.5 19.7031C259.125 18.2969 260.484 17.2031 261.578 16.4219C262.703 15.6406 263.594 15.0312 264.25 14.5938C265.031 14.0938 265.641 13.7656 266.078 13.6094C267.234 13.4219 268.25 13.6875 269.125 14.4062C269.5 14.7188 269.859 15.1406 270.203 15.6719C270.547 16.1719 270.844 16.8438 271.094 17.6875C271.344 18.5312 271.531 19.5469 271.656 20.7344C271.781 21.8906 271.797 23.2812 271.703 24.9062C271.047 24.9688 270.453 25.0312 269.922 25.0938C269.422 25.1562 269 25.2031 268.656 25.2344C268.25 25.2969 267.875 25.3281 267.531 25.3281L266.266 25.4688C265.828 25.5312 265.281 25.5938 264.625 25.6562C264 25.6875 263.234 25.75 262.328 25.8438C263.641 24.7812 264.484 23.8594 264.859 23.0781C265.266 22.2656 265.438 21.5938 265.375 21.0625C265.312 20.4688 265.031 19.9531 264.531 19.5156C263.938 19.1719 263.297 19.0469 262.609 19.1406C262.016 19.2031 261.328 19.4688 260.547 19.9375C259.766 20.4062 258.938 21.2812 258.062 22.5625C258.125 24.5625 258.188 26.2188 258.25 27.5312C258.344 28.8438 258.422 29.9062 258.484 30.7188C258.578 31.6562 258.656 32.3906 258.719 32.9219C258.812 33.3906 259 33.8906 259.281 34.4219C259.5 34.8594 259.812 35.3438 260.219 35.875C260.625 36.4062 261.156 36.9375 261.812 37.4688C260.438 37.4062 259.312 37.4062 258.438 37.4688C257.906 37.5 257.438 37.5312 257.031 37.5625C256.594 37.625 256.125 37.6875 255.625 37.75C255.188 37.8125 254.672 37.875 254.078 37.9375C253.516 38.0312 252.891 38.125 252.203 38.2188C252.453 37.875 252.656 37.4688 252.812 37C252.969 36.5625 253.094 36.1406 253.188 35.7344C253.312 35.2656 253.406 34.7812 253.469 34.2812C253.5 33.8438 253.516 33.1875 253.516 32.3125C253.547 31.4375 253.531 30.4531 253.469 29.3594C253.438 28.2344 253.391 27.0781 253.328 25.8906C253.266 24.6719 253.188 23.5312 253.094 22.4688C253 21.4062 252.891 20.4844 252.766 19.7031C252.672 18.8906 252.562 18.3281 252.438 18.0156C252.281 17.6406 252.094 17.2656 251.875 16.8906C251.688 16.5469 251.453 16.1875 251.172 15.8125C250.891 15.4062 250.578 14.9844 250.234 14.5469ZM285.859 29.4531C286.734 29.4531 287.547 29.3594 288.297 29.1719C288.922 29.0156 289.516 28.7656 290.078 28.4219C290.672 28.0469 291.062 27.5 291.25 26.7812C291.875 26.9062 292.406 27.0156 292.844 27.1094C293.281 27.1719 293.656 27.2344 293.969 27.2969C294.312 27.3906 294.609 27.4531 294.859 27.4844C295.109 27.5469 295.406 27.6094 295.75 27.6719C296.062 27.7344 296.438 27.8125 296.875 27.9062C297.344 27.9688 297.891 28.0625 298.516 28.1875C298.047 28.125 297.562 28.1719 297.062 28.3281C296.594 28.4844 296.141 28.6562 295.703 28.8438C295.203 29.0625 294.734 29.3281 294.297 29.6406C294.016 29.8281 293.688 30.1094 293.312 30.4844C292.969 30.8594 292.469 31.2188 291.812 31.5625C291.156 31.9062 290.281 32.2031 289.188 32.4531C288.125 32.6719 286.75 32.75 285.062 32.6875C283.031 32.625 281.328 32.2656 279.953 31.6094C278.578 30.9219 277.469 30.0938 276.625 29.125C275.781 28.125 275.172 27.0469 274.797 25.8906C274.422 24.7344 274.219 23.6562 274.188 22.6562C274.156 21.6562 274.453 20.6094 275.078 19.5156C275.703 18.4219 276.578 17.4219 277.703 16.5156C278.859 15.6094 280.25 14.875 281.875 14.3125C283.5 13.7188 285.281 13.4219 287.219 13.4219C288.344 13.4219 289.375 13.5625 290.312 13.8438C291.281 14.0938 292.156 14.4375 292.938 14.875C293.75 15.3125 294.453 15.8125 295.047 16.375C295.641 16.9062 296.141 17.4531 296.547 18.0156C296.953 18.6094 297.297 19.2344 297.578 19.8906C297.828 20.4531 298.031 21.0938 298.188 21.8125C298.344 22.5312 298.391 23.2656 298.328 24.0156C295.953 24.0781 294.031 24.125 292.562 24.1562C291.125 24.1875 290 24.2031 289.188 24.2031H287.078H285.484C284.922 24.2031 284.188 24.2188 283.281 24.25C282.375 24.2812 281.266 24.3281 279.953 24.3906C280.109 25.6406 280.5 26.6094 281.125 27.2969C281.781 27.9531 282.469 28.4531 283.188 28.7969C284 29.1719 284.891 29.3906 285.859 29.4531ZM281.641 21.0156C282.641 21.0781 283.469 21.125 284.125 21.1562C284.812 21.1875 285.375 21.2188 285.812 21.25C286.281 21.2812 286.656 21.2969 286.938 21.2969H288.109C288.891 21.2969 290.344 21.25 292.469 21.1562C292.375 19.7812 292.078 18.7344 291.578 18.0156C291.109 17.2969 290.609 16.7656 290.078 16.4219C289.453 16.0469 288.766 15.8281 288.016 15.7656C285.984 15.7969 284.469 16.2188 283.469 17.0312C282.5 17.8438 281.891 19.1719 281.641 21.0156Z" fill="black"/>
</svg>
